<?xml version="1.0" encoding="UTF-8" standalone="no"?>
<!-- Created with Inkscape (http://www.inkscape.org/) -->

<svg
   xmlns:dc="http://purl.org/dc/elements/1.1/"
   xmlns:cc="http://creativecommons.org/ns#"
   xmlns:rdf="http://www.w3.org/1999/02/22-rdf-syntax-ns#"
   xmlns:svg="http://www.w3.org/2000/svg"
   xmlns="http://www.w3.org/2000/svg"
   xmlns:sodipodi="http://sodipodi.sourceforge.net/DTD/sodipodi-0.dtd"
   xmlns:inkscape="http://www.inkscape.org/namespaces/inkscape"
   width="24"
   height="24"
   id="svg2"
   version="1.1"
   inkscape:version="0.48.3.1 r9886"
   sodipodi:docname="rocket3.svg">
  <defs
     id="defs4" />
  <sodipodi:namedview
     id="base"
     pagecolor="#ffffff"
     bordercolor="#666666"
     borderopacity="1.0"
     inkscape:pageopacity="0.0"
     inkscape:pageshadow="2"
     inkscape:zoom="31.678384"
     inkscape:cx="12.549627"
     inkscape:cy="10.563606"
     inkscape:document-units="px"
     inkscape:current-layer="layer1"
     showgrid="false"
     inkscape:window-width="871"
     inkscape:window-height="775"
     inkscape:window-x="738"
     inkscape:window-y="129"
     inkscape:window-maximized="0"
     fit-margin-top="0"
     fit-margin-left="0"
     fit-margin-right="0"
     fit-margin-bottom="0" />
  <metadata
     id="metadata7">
    <rdf:RDF>
      <cc:Work
         rdf:about="">
        <dc:format>image/svg+xml</dc:format>
        <dc:type
           rdf:resource="http://purl.org/dc/dcmitype/StillImage" />
        <dc:title />
      </cc:Work>
    </rdf:RDF>
  </metadata>
  <g
     inkscape:label="Layer 1"
     inkscape:groupmode="layer"
     id="layer1"
     transform="translate(-19.928652,-15.762037)">
    <path
       style="fill:none;stroke:#000000;stroke-width:1px;stroke-linecap:butt;stroke-linejoin:miter;stroke-opacity:1"
       d="m 11.785714,16.946429 0.357143,-0.892858"
       id="path2983"
       inkscape:connector-curvature="0"
       transform="translate(19.928652,15.762037)" />
    <path
       style="fill:none;stroke:#000000;stroke-width:1px;stroke-linecap:butt;stroke-linejoin:miter;stroke-opacity:1"
       d="m 8.0812203,11.720333 0.5366436,1.673065"
       id="path2987"
       inkscape:connector-curvature="0"
       transform="translate(19.928652,15.762037)" />
    <path
       style="fill:#f2f2f2;stroke:#000000;stroke-width:1px;stroke-linecap:butt;stroke-linejoin:miter;stroke-opacity:1"
       d="m 8.5862966,12.604217 c -0.036671,0.146685 -0.031567,0.08288 -0.031567,0.189403 0,0.01052 0.00744,0.02413 0,0.03157 -0.00744,0.0074 -0.024127,-0.0074 -0.031567,0 -0.00306,0.0031 0,0.145806 0,0.157836 0,0.07403 0.00744,-0.01488 -0.031567,0.06313 -0.00471,0.0094 0.010522,0.03157 0,0.03157 -0.043385,0 -0.083726,-0.02306 -0.1262691,-0.03157 -0.010318,-0.0021 -0.024127,-0.0074 -0.031567,0 -0.014881,0.01488 0.014881,0.04825 0,0.06313 -0.00744,0.0074 -0.031567,0.01052 -0.031567,0 0,-0.03194 0.097255,-0.06696 0.031567,0.03157 -0.013051,0.01958 -0.046497,0.01493 -0.063135,0.03157 -0.00744,0.0074 0.00744,0.02413 0,0.03157 -0.00744,0.0074 -0.024127,-0.0074 -0.031567,0 -0.00744,0.0074 0.00744,0.02413 0,0.03157 -0.00744,0.0074 -0.024127,-0.0074 -0.031567,0 -0.00744,0.0074 0.00471,0.02216 0,0.03157 -0.00666,0.01331 -0.024912,0.01826 -0.031567,0.03157 -0.00471,0.0094 0.00744,0.02413 0,0.03157 -0.00744,0.0074 -0.024127,-0.0074 -0.031567,0 -0.014881,0.01488 0.014881,0.04825 0,0.06313 -0.00744,0.0074 -0.024127,-0.0074 -0.031567,0 -0.00744,0.0074 0.00744,0.02413 0,0.03157 -0.00744,0.0074 -0.024127,-0.0074 -0.031567,0 -0.014881,0.01488 0.014881,0.04825 0,0.06313 -0.052612,0.05261 -0.010522,-0.08418 -0.063135,-0.03157 -0.014881,0.01488 0.014881,0.04825 0,0.06313 -0.014881,0.01488 -0.048254,-0.01488 -0.063134,0 -0.00744,0.0074 0.00744,0.02413 0,0.03157 -0.014881,0.01488 -0.048254,-0.01488 -0.063135,0 -0.00744,0.0074 0.00744,0.02413 0,0.03157 -0.015784,0.01578 -0.078918,-0.01578 -0.094702,0 -0.014881,0.01488 0.014881,0.04825 0,0.06313 -0.00744,0.0074 -0.031567,0.01052 -0.031567,0 0,-0.01488 0.031567,-0.01669 0.031567,-0.03157 0,-0.01052 -0.021045,0 -0.031567,0 -0.010522,0 -0.024127,-0.0074 -0.031567,0 -0.00744,0.0074 0.00744,0.02413 0,0.03157 -0.00645,0.0065 -0.082186,-0.0063 -0.094702,0 -0.01331,0.0067 -0.018257,0.02491 -0.031567,0.03157 -0.00961,0.0048 -0.080485,0 -0.094702,0 -0.126269,0 0.052612,-0.01052 -0.031567,0.03157 -0.037646,0.01882 -0.088623,-0.01882 -0.1262691,0 -0.00941,0.0047 0.00744,0.02413 0,0.03157 -0.014881,0.01488 -0.048254,-0.01488 -0.063135,0 -0.026827,0.02683 -0.032783,0.07194 -0.063134,0.0947 -0.016836,0.01263 -0.04209,0 -0.063135,0 -0.010522,0 -0.024127,-0.0074 -0.031567,0 -0.00744,0.0074 0.00744,0.02413 0,0.03157 -0.00744,0.0074 -0.021045,0 -0.031567,0 -0.021045,0 -0.04317,0.0067 -0.063135,0 -0.072951,-0.02432 0.014215,-0.05603 -0.063135,-0.0947 -0.1494184,-0.07471 -0.072254,0.01824 -0.094702,0.06313 -0.00941,0.01882 -0.048254,-0.01488 -0.063135,0 -0.00744,0.0074 0.00744,0.03901 0,0.03157 -0.016637,-0.01664 -0.01493,-0.0465 -0.031567,-0.06313 -0.00744,-0.0074 -0.024127,-0.0074 -0.031567,0 -0.00744,0.0074 0.00744,0.03901 0,0.03157 -0.016637,-0.01664 -0.021045,-0.04209 -0.031567,-0.06313"
       id="path2989"
       inkscape:connector-curvature="0"
       transform="translate(19.928652,15.762037)" />
    <rect
       style="fill:#f2f2f2"
       id="rect2995"
       width="2.9041886"
       height="1.767767"
       x="7.4183078"
       y="12.604217"
       transform="translate(19.928652,15.762037)" />
    <rect
       style="fill:#f2f2f2"
       id="rect2997"
       width="4.0090427"
       height="1.9256033"
       x="3.9774756"
       y="14.087878"
       transform="translate(19.928652,15.762037)" />
    <rect
       style="fill:#f2f2f2"
       id="rect2999"
       width="10.796005"
       height="1.5783633"
       x="7.9865184"
       y="13.393398"
       transform="translate(19.928652,15.762037)" />
    <rect
       style="fill:#f2f2f2"
       id="rect3001"
       width="3.9774756"
       height="1.8940361"
       x="15.973037"
       y="14.056311"
       transform="translate(19.928652,15.762037)" />
    <rect
       style="fill:#f2f2f2"
       id="rect3003"
       width="8.9335365"
       height="1.8624687"
       x="8.4600277"
       y="12.004438"
       transform="translate(19.928652,15.762037)" />
    <rect
       style="fill:#f2f2f2"
       id="rect3005"
       width="3.2514286"
       height="3.9459083"
       x="4.9560609"
       y="11.120555"
       transform="translate(19.928652,15.762037)" />
    <rect
       style="fill:#f2f2f2"
       id="rect3007"
       width="3.0620248"
       height="2.493814"
       x="5.9977808"
       y="10.868017"
       transform="translate(19.928652,15.762037)" />
    <rect
       style="fill:#f2f2f2"
       id="rect3009"
       width="6.0609155"
       height="3.4723995"
       x="4.9560609"
       y="11.025853"
       transform="translate(19.928652,15.762037)" />
    <rect
       style="fill:#f2f2f2"
       id="rect3011"
       width="1.0101526"
       height="8.1759224"
       x="8.9966707"
       y="6.0066581"
       transform="translate(19.928652,15.762037)" />
    <rect
       style="fill:#f2f2f2"
       id="rect3015"
       width="2.6516504"
       height="3.7880721"
       x="6.976366"
       y="7.932261"
       transform="translate(19.928652,15.762037)" />
    <rect
       style="fill:#f2f2f2"
       id="rect3017"
       width="1.4520943"
       height="1.7046324"
       x="8.0180855"
       y="6.9852433"
       transform="translate(19.928652,15.762037)" />
    <rect
       style="fill:#f2f2f2"
       id="rect3019"
       width="2.1465743"
       height="2.588516"
       x="5.9346461"
       y="8.9739809"
       transform="translate(19.928652,15.762037)" />
    <rect
       style="fill:#f2f2f2"
       id="rect3021"
       width="1.0417198"
       height="1.7993342"
       x="7.9233842"
       y="6.9536757"
       transform="translate(19.928652,15.762037)" />
    <rect
       style="fill:#f2f2f2"
       id="rect3023"
       width="5.0191956"
       height="1.0417198"
       x="10.038391"
       y="6.0066581"
       transform="translate(19.928652,15.762037)" />
    <rect
       style="fill:#f2f2f2"
       id="rect3025"
       width="1.2311234"
       height="1.9256033"
       x="9.7858524"
       y="6.0066581"
       transform="translate(19.928652,15.762037)" />
    <rect
       style="fill:#f2f2f2"
       id="rect3029"
       width="2.0203052"
       height="1.1364216"
       x="11.016976"
       y="4.9965053"
       transform="translate(19.928652,15.762037)" />
    <rect
       style="fill:#f2f2f2"
       id="rect3031"
       width="6.0293479"
       height="3.3776975"
       x="13.005714"
       y="10.994286"
       transform="translate(19.928652,15.762037)" />
    <rect
       style="fill:#f2f2f2"
       id="rect3035"
       width="2.9988904"
       height="4.7035227"
       x="14.015866"
       y="7.9638286"
       transform="translate(19.928652,15.762037)" />
    <rect
       style="fill:#f2f2f2"
       id="rect3039"
       width="2.9673231"
       height="1.1048543"
       x="13.005714"
       y="6.9536757"
       transform="translate(19.928652,15.762037)" />
    <rect
       style="fill:#f2f2f2"
       id="rect3041"
       width="1.0732871"
       height="2.4622469"
       x="16.951622"
       y="9.0055485"
       transform="translate(19.928652,15.762037)" />
    <rect
       style="fill:#f2f2f2"
       id="rect3043"
       width="4.0406103"
       height="2.9357557"
       x="15.973037"
       y="13.046159"
       transform="translate(19.928652,15.762037)" />
    <rect
       style="fill:#f2f2f2"
       id="rect3045"
       width="0.88388348"
       height="1.7993342"
       x="12.058696"
       y="17.149902"
       transform="translate(19.928652,15.762037)" />
    <rect
       style="fill:#f2f2f2"
       id="rect3047"
       width="1.9887378"
       height="4.1984463"
       x="10.985409"
       y="14.750791"
       transform="translate(19.928652,15.762037)" />
    <rect
       style="fill:#f2f2f2"
       id="rect3049"
       width="2.0518723"
       height="4.4194174"
       x="10.985409"
       y="14.719224"
       transform="translate(19.928652,15.762037)" />
    <rect
       style="fill:#f2f2f2"
       id="rect3051"
       width="0.88388348"
       height="2.241276"
       x="13.100416"
       y="14.87706"
       transform="translate(19.928652,15.762037)" />
    <rect
       style="fill:#f2f2f2"
       id="rect3053"
       width="1.1679889"
       height="3.1882939"
       x="12.847878"
       y="14.813926"
       transform="translate(19.928652,15.762037)" />
    <rect
       style="fill:#f2f2f2"
       id="rect3061"
       width="2.2728431"
       height="3.2514286"
       x="10.006824"
       y="14.719224"
       transform="translate(19.928652,15.762037)" />
    <rect
       style="fill:#000000"
       id="rect3016"
       width="4.1037445"
       height="3.1567266"
       x="9.9436893"
       y="7.8691268"
       transform="translate(19.928652,15.762037)" />
    <rect
       style="fill:#000000"
       id="rect3018"
       width="1.9887378"
       height="4.9560609"
       x="11.048543"
       y="7.0799451"
       transform="translate(19.928652,15.762037)" />
    <rect
       style="fill:#f2f2f2"
       id="rect3022"
       width="3.9459083"
       height="1.1679889"
       x="4.0090427"
       y="15.855645"
       transform="translate(19.928652,15.762037)" />
    <rect
       style="fill:#f2f2f2"
       id="rect3024"
       width="2.0203052"
       height="3.6302357"
       x="3.9774756"
       y="11.025853"
       transform="translate(19.928652,15.762037)" />
    <rect
       style="fill:#f2f2f2"
       id="rect3026"
       width="1.1048543"
       height="1.2626907"
       x="4.9560609"
       y="9.9525661"
       transform="translate(19.928652,15.762037)" />
    <rect
       style="fill:#f2f2f2"
       id="rect3066"
       width="2.4306796"
       height="2.2097087"
       x="5.9977808"
       y="7.9953957"
       transform="translate(19.928652,15.762037)" />
    <rect
       style="fill:#f2f2f2"
       id="rect3068"
       width="1.3258252"
       height="1.420527"
       x="7.0079331"
       y="6.9221087"
       transform="translate(19.928652,15.762037)" />
    <rect
       style="fill:#f2f2f2"
       id="rect3070"
       width="1.3889598"
       height="1.2311234"
       x="7.9865184"
       y="5.9750905"
       transform="translate(19.928652,15.762037)" />
    <rect
       style="fill:#f2f2f2"
       id="rect3072"
       width="5.9662132"
       height="1.2311234"
       x="9.0282383"
       y="4.9649382"
       transform="translate(19.928652,15.762037)" />
    <rect
       style="fill:#f2f2f2"
       id="rect3074"
       width="2.0203052"
       height="2.3044105"
       x="11.080111"
       y="4.1757565"
       transform="translate(19.928652,15.762037)" />
    <rect
       style="fill:#f2f2f2"
       id="rect3076"
       width="1.0732871"
       height="1.7361996"
       x="14.962885"
       y="5.9435234"
       transform="translate(19.928652,15.762037)" />
    <rect
       style="fill:#f2f2f2"
       id="rect3078"
       width="1.2311234"
       height="1.7046324"
       x="15.752067"
       y="7.0168104"
       transform="translate(19.928652,15.762037)" />
    <rect
       style="fill:#f2f2f2"
       id="rect3080"
       width="1.2626907"
       height="1.8940361"
       x="16.762218"
       y="8.0269632"
       transform="translate(19.928652,15.762037)" />
    <rect
       style="fill:#f2f2f2"
       id="rect3082"
       width="1.9887378"
       height="1.2311234"
       x="17.014757"
       y="9.9525661"
       transform="translate(19.928652,15.762037)" />
    <rect
       style="fill:#f2f2f2"
       id="rect3084"
       width="2.7147849"
       height="2.841054"
       x="17.298862"
       y="11.025853"
       transform="translate(19.928652,15.762037)" />
    <rect
       style="fill:#f2f2f2"
       id="rect3086"
       width="8.1759224"
       height="1.8624687"
       x="8.0180855"
       y="14.087878"
       transform="translate(19.928652,15.762037)" />
    <rect
       style="fill:#f2f2f2"
       id="rect3088"
       width="4.0090427"
       height="2.1781414"
       x="16.036171"
       y="14.845492"
       transform="translate(19.928652,15.762037)" />
    <rect
       style="fill:#f2f2f2"
       id="rect3090"
       width="1.7993342"
       height="1.6414979"
       x="13.195118"
       y="15.350569"
       transform="translate(19.928652,15.762037)" />
    <rect
       style="fill:#f2f2f2"
       id="rect3092"
       width="1.6730652"
       height="1.6414979"
       x="9.0598059"
       y="15.350569"
       transform="translate(19.928652,15.762037)" />
    <rect
       style="fill:#f2f2f2"
       id="rect3094"
       width="4.0406103"
       height="2.6832178"
       x="9.975256"
       y="16.297586"
       transform="translate(19.928652,15.762037)" />
    <rect
       style="fill:#f2f2f2"
       id="rect3096"
       width="1.8624687"
       height="1.4836615"
       x="7.9233842"
       y="14.529819"
       transform="translate(19.928652,15.762037)" />
    <rect
       style="fill:#f2f2f2"
       id="rect3098"
       width="1.8624687"
       height="1.1995561"
       x="14.962885"
       y="14.750791"
       transform="translate(19.928652,15.762037)" />
    <rect
       style="fill:#f2f2f2"
       id="rect3100"
       width="2.1781414"
       height="1.1048543"
       x="13.889597"
       y="14.940194"
       transform="translate(19.928652,15.762037)" />
    <rect
       style="fill:#f2f2f2"
       id="rect3102"
       width="1.1048543"
       height="1.5783633"
       x="8.9966707"
       y="15.382136"
       transform="translate(19.928652,15.762037)" />
    <rect
       style="fill:#f2f2f2"
       id="rect3104"
       width="0.69447988"
       height="1.5467961"
       x="7.2920384"
       y="15.445271"
       transform="translate(19.928652,15.762037)" />
    <rect
       style="fill:#f2f2f2"
       id="rect3106"
       width="1.5783633"
       height="1.420527"
       x="16.004604"
       y="15.539972"
       transform="translate(19.928652,15.762037)" />
    <rect
       style="fill:#f2f2f2"
       id="rect3108"
       width="1.7361996"
       height="1.4520943"
       x="15.24699"
       y="6.9221087"
       transform="translate(19.928652,15.762037)" />
    <rect
       style="fill:#f2f2f2"
       id="rect3110"
       width="0.8523162"
       height="1.4836615"
       x="16.130873"
       y="6.9536757"
       transform="translate(19.928652,15.762037)" />
    <rect
       style="fill:#f2f2f2"
       id="rect3112"
       width="1.1364216"
       height="1.9256033"
       x="15.909903"
       y="6.8905416"
       transform="translate(19.928652,15.762037)" />
  </g>
</svg>
